<svg xmlns="http://www.w3.org/2000/svg" version="1.1" xmlns:xlink="http://www.w3.org/1999/xlink" xmlns:svgjs="http://svgjs.com/svgjs" width="1440" height="560" preserveAspectRatio="none" viewBox="0 0 1440 560"><g mask="url(&quot;#SvgjsMask1000&quot;)" fill="none"><rect width="1440" height="560" x="0" y="0" fill="#0e2a47"></rect><path d="M-51.88 361.79L-51.88 361.79" stroke="#132e65" stroke-width="1.5"></path><path d="M-51.88 361.79L65.31 351.8" stroke="#132e65" stroke-width="1.5"></path><path d="M-49.23 560.66L-49.23 560.66" stroke="#132e65" stroke-width="1.5"></path><path d="M-49.23 560.66L-57.98 700" stroke="#132e65" stroke-width="1.5"></path><path d="M-49.23 560.66L-51.88 361.79" stroke="#132e65" stroke-width="1.5"></path><path d="M-49.23 560.66L107.69 695.4" stroke="#132e65" stroke-width="1.5"></path><path d="M-49.23 560.66L65.31 351.8" stroke="#132e65" stroke-width="1.5"></path><path d="M-49.23 560.66L199.44 507.8" stroke="#132e65" stroke-width="1.5"></path><path d="M-49.23 560.66L235.03 362.51" stroke="#132e65" stroke-width="1.5"></path><path d="M-57.98 700L-57.98 700" stroke="#132e65" stroke-width="1.5"></path><path d="M-57.98 700L107.69 695.4" stroke="#132e65" stroke-width="1.5"></path><path d="M-57.98 700L199.44 507.8" stroke="#132e65" stroke-width="1.5"></path><path d="M-57.98 700L-51.88 361.79" stroke="#132e65" stroke-width="1.5"></path><path d="M-57.98 700L65.31 351.8" stroke="#132e65" stroke-width="1.5"></path><path d="M65.31 351.8L65.31 351.8" stroke="#132e65" stroke-width="1.5"></path><path d="M65.31 351.8L235.03 362.51" stroke="#132e65" stroke-width="1.5"></path><path d="M107.69 695.4L107.69 695.4" stroke="#132e65" stroke-width="1.5"></path><path d="M107.69 695.4L199.44 507.8" stroke="#132e65" stroke-width="1.5"></path><path d="M107.69 695.4L361.07 681.32" stroke="#132e65" stroke-width="1.5"></path><path d="M107.69 695.4L386.55 502.96" stroke="#132e65" stroke-width="1.5"></path><path d="M107.69 695.4L65.31 351.8" stroke="#132e65" stroke-width="1.5"></path><path d="M235.03 362.51L235.03 362.51" stroke="#132e65" stroke-width="1.5"></path><path d="M235.03 362.51L199.44 507.8" stroke="#132e65" stroke-width="1.5"></path><path d="M199.44 507.8L199.44 507.8" stroke="#132e65" stroke-width="1.5"></path><path d="M386.55 502.96L386.55 502.96" stroke="#132e65" stroke-width="1.5"></path><path d="M386.55 502.96L522.69 401.37" stroke="#132e65" stroke-width="1.5"></path><path d="M386.55 502.96L560.55 495.31" stroke="#132e65" stroke-width="1.5"></path><path d="M361.07 681.32L361.07 681.32" stroke="#132e65" stroke-width="1.5"></path><path d="M361.07 681.32L520.33 660.05" stroke="#132e65" stroke-width="1.5"></path><path d="M361.07 681.32L386.55 502.96" stroke="#132e65" stroke-width="1.5"></path><path d="M361.07 681.32L199.44 507.8" stroke="#132e65" stroke-width="1.5"></path><path d="M522.69 401.37L522.69 401.37" stroke="#132e65" stroke-width="1.5"></path><path d="M522.69 401.37L560.55 495.31" stroke="#132e65" stroke-width="1.5"></path><path d="M522.69 401.37L700.94 390.09" stroke="#132e65" stroke-width="1.5"></path><path d="M560.55 495.31L560.55 495.31" stroke="#132e65" stroke-width="1.5"></path><path d="M560.55 495.31L520.33 660.05" stroke="#132e65" stroke-width="1.5"></path><path d="M520.33 660.05L520.33 660.05" stroke="#132e65" stroke-width="1.5"></path><path d="M520.33 660.05L657.41 647.12" stroke="#132e65" stroke-width="1.5"></path><path d="M520.33 660.05L386.55 502.96" stroke="#132e65" stroke-width="1.5"></path><path d="M520.33 660.05L522.69 401.37" stroke="#132e65" stroke-width="1.5"></path><path d="M638.87 260.1L638.87 260.1" stroke="#132e65" stroke-width="1.5"></path><path d="M638.87 260.1L700.94 390.09" stroke="#132e65" stroke-width="1.5"></path><path d="M638.87 260.1L522.69 401.37" stroke="#132e65" stroke-width="1.5"></path><path d="M638.87 260.1L848.29 259.2" stroke="#132e65" stroke-width="1.5"></path><path d="M638.87 260.1L819.71 395.27" stroke="#132e65" stroke-width="1.5"></path><path d="M638.87 260.1L560.55 495.31" stroke="#132e65" stroke-width="1.5"></path><path d="M638.87 260.1L855.96 100.27" stroke="#132e65" stroke-width="1.5"></path><path d="M700.94 390.09L700.94 390.09" stroke="#132e65" stroke-width="1.5"></path><path d="M700.94 390.09L819.71 395.27" stroke="#132e65" stroke-width="1.5"></path><path d="M700.94 390.09L560.55 495.31" stroke="#132e65" stroke-width="1.5"></path><path d="M657.41 647.12L657.41 647.12" stroke="#132e65" stroke-width="1.5"></path><path d="M657.41 647.12L560.55 495.31" stroke="#132e65" stroke-width="1.5"></path><path d="M657.41 647.12L841.16 654.9" stroke="#132e65" stroke-width="1.5"></path><path d="M855.96 100.27L855.96 100.27" stroke="#132e65" stroke-width="1.5"></path><path d="M855.96 100.27L982.21 76.72" stroke="#132e65" stroke-width="1.5"></path><path d="M855.96 100.27L984.75 188.72" stroke="#132e65" stroke-width="1.5"></path><path d="M855.96 100.27L848.29 259.2" stroke="#132e65" stroke-width="1.5"></path><path d="M855.96 100.27L1008.96 -51.52" stroke="#132e65" stroke-width="1.5"></path><path d="M855.96 100.27L1099.75 47.28" stroke="#132e65" stroke-width="1.5"></path><path d="M848.29 259.2L848.29 259.2" stroke="#132e65" stroke-width="1.5"></path><path d="M848.29 259.2L819.71 395.27" stroke="#132e65" stroke-width="1.5"></path><path d="M848.29 259.2L984.75 188.72" stroke="#132e65" stroke-width="1.5"></path><path d="M819.71 395.27L819.71 395.27" stroke="#132e65" stroke-width="1.5"></path><path d="M819.71 395.27L861.4 516.52" stroke="#132e65" stroke-width="1.5"></path><path d="M819.71 395.27L994.92 385.45" stroke="#132e65" stroke-width="1.5"></path><path d="M861.4 516.52L861.4 516.52" stroke="#132e65" stroke-width="1.5"></path><path d="M861.4 516.52L955.3 534.53" stroke="#132e65" stroke-width="1.5"></path><path d="M841.16 654.9L841.16 654.9" stroke="#132e65" stroke-width="1.5"></path><path d="M841.16 654.9L953.48 700.8" stroke="#132e65" stroke-width="1.5"></path><path d="M841.16 654.9L861.4 516.52" stroke="#132e65" stroke-width="1.5"></path><path d="M841.16 654.9L955.3 534.53" stroke="#132e65" stroke-width="1.5"></path><path d="M841.16 654.9L819.71 395.27" stroke="#132e65" stroke-width="1.5"></path><path d="M1008.96 -51.52L1008.96 -51.52" stroke="#132e65" stroke-width="1.5"></path><path d="M1008.96 -51.52L1102.77 -107.05" stroke="#132e65" stroke-width="1.5"></path><path d="M1008.96 -51.52L982.21 76.72" stroke="#132e65" stroke-width="1.5"></path><path d="M1008.96 -51.52L1099.75 47.28" stroke="#132e65" stroke-width="1.5"></path><path d="M982.21 76.72L982.21 76.72" stroke="#132e65" stroke-width="1.5"></path><path d="M982.21 76.72L984.75 188.72" stroke="#132e65" stroke-width="1.5"></path><path d="M982.21 76.72L1099.75 47.28" stroke="#132e65" stroke-width="1.5"></path><path d="M984.75 188.72L984.75 188.72" stroke="#132e65" stroke-width="1.5"></path><path d="M994.92 385.45L994.92 385.45" stroke="#132e65" stroke-width="1.5"></path><path d="M994.92 385.45L955.3 534.53" stroke="#132e65" stroke-width="1.5"></path><path d="M994.92 385.45L1152.76 381.4" stroke="#132e65" stroke-width="1.5"></path><path d="M994.92 385.45L1091.44 535.38" stroke="#132e65" stroke-width="1.5"></path><path d="M955.3 534.53L955.3 534.53" stroke="#132e65" stroke-width="1.5"></path><path d="M955.3 534.53L1091.44 535.38" stroke="#132e65" stroke-width="1.5"></path><path d="M953.48 700.8L953.48 700.8" stroke="#132e65" stroke-width="1.5"></path><path d="M953.48 700.8L1118.12 704.45" stroke="#132e65" stroke-width="1.5"></path><path d="M953.48 700.8L955.3 534.53" stroke="#132e65" stroke-width="1.5"></path><path d="M953.48 700.8L861.4 516.52" stroke="#132e65" stroke-width="1.5"></path><path d="M953.48 700.8L1091.44 535.38" stroke="#132e65" stroke-width="1.5"></path><path d="M1102.77 -107.05L1102.77 -107.05" stroke="#132e65" stroke-width="1.5"></path><path d="M1102.77 -107.05L1099.75 47.28" stroke="#132e65" stroke-width="1.5"></path><path d="M1102.77 -107.05L1238.36 42.96" stroke="#132e65" stroke-width="1.5"></path><path d="M1102.77 -107.05L1308.66 -43.99" stroke="#132e65" stroke-width="1.5"></path><path d="M1102.77 -107.05L982.21 76.72" stroke="#132e65" stroke-width="1.5"></path><path d="M1102.77 -107.05L984.75 188.72" stroke="#132e65" stroke-width="1.5"></path><path d="M1099.75 47.28L1099.75 47.28" stroke="#132e65" stroke-width="1.5"></path><path d="M1099.75 47.28L1238.36 42.96" stroke="#132e65" stroke-width="1.5"></path><path d="M1139.37 261.76L1139.37 261.76" stroke="#132e65" stroke-width="1.5"></path><path d="M1139.37 261.76L1239.76 216.82" stroke="#132e65" stroke-width="1.5"></path><path d="M1139.37 261.76L1152.76 381.4" stroke="#132e65" stroke-width="1.5"></path><path d="M1139.37 261.76L984.75 188.72" stroke="#132e65" stroke-width="1.5"></path><path d="M1139.37 261.76L1278.06 380.86" stroke="#132e65" stroke-width="1.5"></path><path d="M1152.76 381.4L1152.76 381.4" stroke="#132e65" stroke-width="1.5"></path><path d="M1152.76 381.4L1278.06 380.86" stroke="#132e65" stroke-width="1.5"></path><path d="M1091.44 535.38L1091.44 535.38" stroke="#132e65" stroke-width="1.5"></path><path d="M1091.44 535.38L1152.76 381.4" stroke="#132e65" stroke-width="1.5"></path><path d="M1091.44 535.38L1118.12 704.45" stroke="#132e65" stroke-width="1.5"></path><path d="M1091.44 535.38L1252.51 668.76" stroke="#132e65" stroke-width="1.5"></path><path d="M1091.44 535.38L1301.58 535.67" stroke="#132e65" stroke-width="1.5"></path><path d="M1118.12 704.45L1118.12 704.45" stroke="#132e65" stroke-width="1.5"></path><path d="M1118.12 704.45L1252.51 668.76" stroke="#132e65" stroke-width="1.5"></path><path d="M1308.66 -43.99L1308.66 -43.99" stroke="#132e65" stroke-width="1.5"></path><path d="M1308.66 -43.99L1238.36 42.96" stroke="#132e65" stroke-width="1.5"></path><path d="M1308.66 -43.99L1417.31 62.71" stroke="#132e65" stroke-width="1.5"></path><path d="M1308.66 -43.99L1460.5 -56.73" stroke="#132e65" stroke-width="1.5"></path><path d="M1238.36 42.96L1238.36 42.96" stroke="#132e65" stroke-width="1.5"></path><path d="M1238.36 42.96L1239.76 216.82" stroke="#132e65" stroke-width="1.5"></path><path d="M1239.76 216.82L1239.76 216.82" stroke="#132e65" stroke-width="1.5"></path><path d="M1239.76 216.82L1278.06 380.86" stroke="#132e65" stroke-width="1.5"></path><path d="M1239.76 216.82L1152.76 381.4" stroke="#132e65" stroke-width="1.5"></path><path d="M1239.76 216.82L1428.1 245.67" stroke="#132e65" stroke-width="1.5"></path><path d="M1278.06 380.86L1278.06 380.86" stroke="#132e65" stroke-width="1.5"></path><path d="M1278.06 380.86L1301.58 535.67" stroke="#132e65" stroke-width="1.5"></path><path d="M1278.06 380.86L1461.96 367.94" stroke="#132e65" stroke-width="1.5"></path><path d="M1301.58 535.67L1301.58 535.67" stroke="#132e65" stroke-width="1.5"></path><path d="M1301.58 535.67L1252.51 668.76" stroke="#132e65" stroke-width="1.5"></path><path d="M1252.51 668.76L1252.51 668.76" stroke="#132e65" stroke-width="1.5"></path><path d="M1252.51 668.76L1391.46 700.44" stroke="#132e65" stroke-width="1.5"></path><path d="M1252.51 668.76L1453.64 560.48" stroke="#132e65" stroke-width="1.5"></path><path d="M1460.5 -56.73L1460.5 -56.73" stroke="#132e65" stroke-width="1.5"></path><path d="M1460.5 -56.73L1538.94 -65.61" stroke="#132e65" stroke-width="1.5"></path><path d="M1460.5 -56.73L1417.31 62.71" stroke="#132e65" stroke-width="1.5"></path><path d="M1460.5 -56.73L1572.58 110.35" stroke="#132e65" stroke-width="1.5"></path><path d="M1460.5 -56.73L1238.36 42.96" stroke="#132e65" stroke-width="1.5"></path><path d="M1417.31 62.71L1417.31 62.71" stroke="#132e65" stroke-width="1.5"></path><path d="M1417.31 62.71L1572.58 110.35" stroke="#132e65" stroke-width="1.5"></path><path d="M1428.1 245.67L1428.1 245.67" stroke="#132e65" stroke-width="1.5"></path><path d="M1428.1 245.67L1545.14 208.08" stroke="#132e65" stroke-width="1.5"></path><path d="M1428.1 245.67L1461.96 367.94" stroke="#132e65" stroke-width="1.5"></path><path d="M1428.1 245.67L1564.45 347.8" stroke="#132e65" stroke-width="1.5"></path><path d="M1428.1 245.67L1417.31 62.71" stroke="#132e65" stroke-width="1.5"></path><path d="M1461.96 367.94L1461.96 367.94" stroke="#132e65" stroke-width="1.5"></path><path d="M1461.96 367.94L1564.45 347.8" stroke="#132e65" stroke-width="1.5"></path><path d="M1453.64 560.48L1453.64 560.48" stroke="#132e65" stroke-width="1.5"></path><path d="M1453.64 560.48L1589.75 490.8" stroke="#132e65" stroke-width="1.5"></path><path d="M1453.64 560.48L1391.46 700.44" stroke="#132e65" stroke-width="1.5"></path><path d="M1453.64 560.48L1301.58 535.67" stroke="#132e65" stroke-width="1.5"></path><path d="M1391.46 700.44L1391.46 700.44" stroke="#132e65" stroke-width="1.5"></path><path d="M1391.46 700.44L1301.58 535.67" stroke="#132e65" stroke-width="1.5"></path><path d="M1391.46 700.44L1580.15 698.12" stroke="#132e65" stroke-width="1.5"></path><path d="M1391.46 700.44L1118.12 704.45" stroke="#132e65" stroke-width="1.5"></path><path d="M1391.46 700.44L1589.75 490.8" stroke="#132e65" stroke-width="1.5"></path><path d="M1538.94 -65.61L1538.94 -65.61" stroke="#132e65" stroke-width="1.5"></path><path d="M1538.94 -65.61L1417.31 62.71" stroke="#132e65" stroke-width="1.5"></path><path d="M1572.58 110.35L1572.58 110.35" stroke="#132e65" stroke-width="1.5"></path><path d="M1572.58 110.35L1545.14 208.08" stroke="#132e65" stroke-width="1.5"></path><path d="M1572.58 110.35L1538.94 -65.61" stroke="#132e65" stroke-width="1.5"></path><path d="M1572.58 110.35L1428.1 245.67" stroke="#132e65" stroke-width="1.5"></path><path d="M1572.58 110.35L1564.45 347.8" stroke="#132e65" stroke-width="1.5"></path><path d="M1545.14 208.08L1545.14 208.08" stroke="#132e65" stroke-width="1.5"></path><path d="M1564.45 347.8L1564.45 347.8" stroke="#132e65" stroke-width="1.5"></path><path d="M1589.75 490.8L1589.75 490.8" stroke="#132e65" stroke-width="1.5"></path><path d="M1589.75 490.8L1564.45 347.8" stroke="#132e65" stroke-width="1.5"></path><path d="M1589.75 490.8L1461.96 367.94" stroke="#132e65" stroke-width="1.5"></path><path d="M1589.75 490.8L1580.15 698.12" stroke="#132e65" stroke-width="1.5"></path><path d="M1589.75 490.8L1545.14 208.08" stroke="#132e65" stroke-width="1.5"></path><path d="M1580.15 698.12L1580.15 698.12" stroke="#132e65" stroke-width="1.5"></path><path d="M1580.15 698.12L1453.64 560.48" stroke="#132e65" stroke-width="1.5"></path><path d="M1580.15 698.12L1301.58 535.67" stroke="#132e65" stroke-width="1.5"></path><path d="M1580.15 698.12L1252.51 668.76" stroke="#132e65" stroke-width="1.5"></path><circle r="5" cx="-51.88" cy="361.79" fill="#132e65"></circle><circle r="5" cx="-49.23" cy="560.66" fill="#132e65"></circle><circle r="5" cx="-57.98" cy="700" fill="#132e65"></circle><circle r="5" cx="65.31" cy="351.8" fill="#132e65"></circle><circle r="5" cx="107.69" cy="695.4" fill="#132e65"></circle><circle r="5" cx="235.03" cy="362.51" fill="#132e65"></circle><circle r="5" cx="199.44" cy="507.8" fill="#132e65"></circle><circle r="5" cx="386.55" cy="502.96" fill="#132e65"></circle><circle r="5" cx="361.07" cy="681.32" fill="#132e65"></circle><circle r="5" cx="522.69" cy="401.37" fill="#132e65"></circle><circle r="5" cx="560.55" cy="495.31" fill="#132e65"></circle><circle r="5" cx="520.33" cy="660.05" fill="#132e65"></circle><circle r="5" cx="638.87" cy="260.1" fill="#132e65"></circle><circle r="5" cx="700.94" cy="390.09" fill="#132e65"></circle><circle r="5" cx="657.41" cy="647.12" fill="#132e65"></circle><circle r="5" cx="855.96" cy="100.27" fill="#132e65"></circle><circle r="5" cx="848.29" cy="259.2" fill="#132e65"></circle><circle r="5" cx="819.71" cy="395.27" fill="#132e65"></circle><circle r="5" cx="861.4" cy="516.52" fill="#132e65"></circle><circle r="5" cx="841.16" cy="654.9" fill="#132e65"></circle><circle r="5" cx="1008.96" cy="-51.52" fill="#132e65"></circle><circle r="5" cx="982.21" cy="76.72" fill="#132e65"></circle><circle r="5" cx="984.75" cy="188.72" fill="#132e65"></circle><circle r="5" cx="994.92" cy="385.45" fill="#132e65"></circle><circle r="5" cx="955.3" cy="534.53" fill="#132e65"></circle><circle r="5" cx="953.48" cy="700.8" fill="#132e65"></circle><circle r="5" cx="1102.77" cy="-107.05" fill="#132e65"></circle><circle r="5" cx="1099.75" cy="47.28" fill="#132e65"></circle><circle r="5" cx="1139.37" cy="261.76" fill="#132e65"></circle><circle r="5" cx="1152.76" cy="381.4" fill="#132e65"></circle><circle r="5" cx="1091.44" cy="535.38" fill="#132e65"></circle><circle r="5" cx="1118.12" cy="704.45" fill="#132e65"></circle><circle r="5" cx="1308.66" cy="-43.99" fill="#132e65"></circle><circle r="5" cx="1238.36" cy="42.96" fill="#132e65"></circle><circle r="5" cx="1239.76" cy="216.82" fill="#132e65"></circle><circle r="5" cx="1278.06" cy="380.86" fill="#132e65"></circle><circle r="5" cx="1301.58" cy="535.67" fill="#132e65"></circle><circle r="5" cx="1252.51" cy="668.76" fill="#132e65"></circle><circle r="5" cx="1460.5" cy="-56.73" fill="#132e65"></circle><circle r="5" cx="1417.31" cy="62.71" fill="#132e65"></circle><circle r="5" cx="1428.1" cy="245.67" fill="#132e65"></circle><circle r="5" cx="1461.96" cy="367.94" fill="#132e65"></circle><circle r="5" cx="1453.64" cy="560.48" fill="#132e65"></circle><circle r="5" cx="1391.46" cy="700.44" fill="#132e65"></circle><circle r="5" cx="1538.94" cy="-65.61" fill="#132e65"></circle><circle r="5" cx="1572.58" cy="110.35" fill="#132e65"></circle><circle r="5" cx="1545.14" cy="208.08" fill="#132e65"></circle><circle r="5" cx="1564.45" cy="347.8" fill="#132e65"></circle><circle r="5" cx="1589.75" cy="490.8" fill="#132e65"></circle><circle r="5" cx="1580.15" cy="698.12" fill="#132e65"></circle><path d="M-59.72 547.51L-59.72 547.51" stroke="hsl(228.5, 77.2%, 51.5%)" stroke-width="1.5"></path><path d="M-59.72 547.51L48.6 504.57" stroke="hsl(228.5, 77.2%, 51.5%)" stroke-width="1.5"></path><path d="M-59.72 547.51L-84.13 705.66" stroke="hsl(228.5, 77.2%, 51.5%)" stroke-width="1.5"></path><path d="M-59.72 547.51L112.27 656.62" stroke="hsl(228.5, 77.2%, 51.5%)" stroke-width="1.5"></path><path d="M-59.72 547.51L221.48 524.83" stroke="hsl(228.5, 77.2%, 51.5%)" stroke-width="1.5"></path><path d="M112.27 656.62L112.27 656.62" stroke="hsl(228.5, 77.2%, 51.5%)" stroke-width="1.5"></path><path d="M112.27 656.62L212.7 703.57" stroke="hsl(228.5, 77.2%, 51.5%)" stroke-width="1.5"></path><path d="M112.27 656.62L48.6 504.57" stroke="hsl(228.5, 77.2%, 51.5%)" stroke-width="1.5"></path><path d="M559.38 665.5L559.38 665.5" stroke="hsl(228.5, 77.2%, 51.5%)" stroke-width="1.5"></path><path d="M559.38 665.5L533.16 555.74" stroke="hsl(228.5, 77.2%, 51.5%)" stroke-width="1.5"></path><path d="M559.38 665.5L407.49 693.06" stroke="hsl(228.5, 77.2%, 51.5%)" stroke-width="1.5"></path><path d="M559.38 665.5L709.34 560.56" stroke="hsl(228.5, 77.2%, 51.5%)" stroke-width="1.5"></path><path d="M559.38 665.5L799.37 500.9" stroke="hsl(228.5, 77.2%, 51.5%)" stroke-width="1.5"></path><path d="M559.38 665.5L851.11 671.74" stroke="hsl(228.5, 77.2%, 51.5%)" stroke-width="1.5"></path><path d="M559.38 665.5L212.7 703.57" stroke="hsl(228.5, 77.2%, 51.5%)" stroke-width="1.5"></path><path d="M961.27 689.4L961.27 689.4" stroke="hsl(228.5, 77.2%, 51.5%)" stroke-width="1.5"></path><path d="M961.27 689.4L851.11 671.74" stroke="hsl(228.5, 77.2%, 51.5%)" stroke-width="1.5"></path><path d="M961.27 689.4L989.27 525.39" stroke="hsl(228.5, 77.2%, 51.5%)" stroke-width="1.5"></path><path d="M961.27 689.4L1159.62 666.84" stroke="hsl(228.5, 77.2%, 51.5%)" stroke-width="1.5"></path><path d="M961.27 689.4L1128.53 511.71" stroke="hsl(228.5, 77.2%, 51.5%)" stroke-width="1.5"></path><path d="M961.27 689.4L799.37 500.9" stroke="hsl(228.5, 77.2%, 51.5%)" stroke-width="1.5"></path><path d="M1298.25 -71.5L1298.25 -71.5" stroke="hsl(228.5, 77.2%, 51.5%)" stroke-width="1.5"></path><path d="M1298.25 -71.5L1156.73 -70.96" stroke="hsl(228.5, 77.2%, 51.5%)" stroke-width="1.5"></path><path d="M1298.25 -71.5L1454.23 -86.83" stroke="hsl(228.5, 77.2%, 51.5%)" stroke-width="1.5"></path><path d="M1558.97 206.56L1558.97 206.56" stroke="hsl(228.5, 77.2%, 51.5%)" stroke-width="1.5"></path><path d="M1558.97 206.56L1610.63 109.74" stroke="hsl(228.5, 77.2%, 51.5%)" stroke-width="1.5"></path><path d="M1558.97 206.56L1389.14 197.41" stroke="hsl(228.5, 77.2%, 51.5%)" stroke-width="1.5"></path><path d="M1558.97 206.56L1389.12 89.31" stroke="hsl(228.5, 77.2%, 51.5%)" stroke-width="1.5"></path><path d="M1561.19 528.8L1561.19 528.8" stroke="hsl(228.5, 77.2%, 51.5%)" stroke-width="1.5"></path><path d="M1561.19 528.8L1432.64 497.16" stroke="hsl(228.5, 77.2%, 51.5%)" stroke-width="1.5"></path><path d="M1561.19 528.8L1605.27 701.88" stroke="hsl(228.5, 77.2%, 51.5%)" stroke-width="1.5"></path><path d="M1561.19 528.8L1405.26 408.53" stroke="hsl(228.5, 77.2%, 51.5%)" stroke-width="1.5"></path><path d="M-84.13 705.66L-84.13 705.66" stroke="hsl(228.5, 77.2%, 51.5%)" stroke-width="1.5"></path><path d="M-84.13 705.66L112.27 656.62" stroke="hsl(228.5, 77.2%, 51.5%)" stroke-width="1.5"></path><path d="M-84.13 705.66L48.6 504.57" stroke="hsl(228.5, 77.2%, 51.5%)" stroke-width="1.5"></path><path d="M48.6 504.57L48.6 504.57" stroke="hsl(228.5, 77.2%, 51.5%)" stroke-width="1.5"></path><path d="M48.6 504.57L221.48 524.83" stroke="hsl(228.5, 77.2%, 51.5%)" stroke-width="1.5"></path><path d="M221.48 524.83L221.48 524.83" stroke="hsl(228.5, 77.2%, 51.5%)" stroke-width="1.5"></path><path d="M221.48 524.83L112.27 656.62" stroke="hsl(228.5, 77.2%, 51.5%)" stroke-width="1.5"></path><path d="M221.48 524.83L212.7 703.57" stroke="hsl(228.5, 77.2%, 51.5%)" stroke-width="1.5"></path><path d="M221.48 524.83L407.49 693.06" stroke="hsl(228.5, 77.2%, 51.5%)" stroke-width="1.5"></path><path d="M221.48 524.83L533.16 555.74" stroke="hsl(228.5, 77.2%, 51.5%)" stroke-width="1.5"></path><path d="M212.7 703.57L212.7 703.57" stroke="hsl(228.5, 77.2%, 51.5%)" stroke-width="1.5"></path><path d="M407.49 693.06L407.49 693.06" stroke="hsl(228.5, 77.2%, 51.5%)" stroke-width="1.5"></path><path d="M407.49 693.06L533.16 555.74" stroke="hsl(228.5, 77.2%, 51.5%)" stroke-width="1.5"></path><path d="M407.49 693.06L212.7 703.57" stroke="hsl(228.5, 77.2%, 51.5%)" stroke-width="1.5"></path><path d="M407.49 693.06L112.27 656.62" stroke="hsl(228.5, 77.2%, 51.5%)" stroke-width="1.5"></path><path d="M407.49 693.06L709.34 560.56" stroke="hsl(228.5, 77.2%, 51.5%)" stroke-width="1.5"></path><path d="M533.16 555.74L533.16 555.74" stroke="hsl(228.5, 77.2%, 51.5%)" stroke-width="1.5"></path><path d="M533.16 555.74L709.34 560.56" stroke="hsl(228.5, 77.2%, 51.5%)" stroke-width="1.5"></path><path d="M709.34 560.56L709.34 560.56" stroke="hsl(228.5, 77.2%, 51.5%)" stroke-width="1.5"></path><path d="M709.34 560.56L799.37 500.9" stroke="hsl(228.5, 77.2%, 51.5%)" stroke-width="1.5"></path><path d="M811.96 402.36L811.96 402.36" stroke="hsl(228.5, 77.2%, 51.5%)" stroke-width="1.5"></path><path d="M811.96 402.36L799.37 500.9" stroke="hsl(228.5, 77.2%, 51.5%)" stroke-width="1.5"></path><path d="M811.96 402.36L709.34 560.56" stroke="hsl(228.5, 77.2%, 51.5%)" stroke-width="1.5"></path><path d="M811.96 402.36L989.27 525.39" stroke="hsl(228.5, 77.2%, 51.5%)" stroke-width="1.5"></path><path d="M811.96 402.36L999.61 258.2" stroke="hsl(228.5, 77.2%, 51.5%)" stroke-width="1.5"></path><path d="M811.96 402.36L851.11 671.74" stroke="hsl(228.5, 77.2%, 51.5%)" stroke-width="1.5"></path><path d="M799.37 500.9L799.37 500.9" stroke="hsl(228.5, 77.2%, 51.5%)" stroke-width="1.5"></path><path d="M799.37 500.9L851.11 671.74" stroke="hsl(228.5, 77.2%, 51.5%)" stroke-width="1.5"></path><path d="M799.37 500.9L989.27 525.39" stroke="hsl(228.5, 77.2%, 51.5%)" stroke-width="1.5"></path><path d="M851.11 671.74L851.11 671.74" stroke="hsl(228.5, 77.2%, 51.5%)" stroke-width="1.5"></path><path d="M851.11 671.74L709.34 560.56" stroke="hsl(228.5, 77.2%, 51.5%)" stroke-width="1.5"></path><path d="M999.61 258.2L999.61 258.2" stroke="hsl(228.5, 77.2%, 51.5%)" stroke-width="1.5"></path><path d="M999.61 258.2L989.27 525.39" stroke="hsl(228.5, 77.2%, 51.5%)" stroke-width="1.5"></path><path d="M999.61 258.2L1264.49 205.52" stroke="hsl(228.5, 77.2%, 51.5%)" stroke-width="1.5"></path><path d="M999.61 258.2L1128.53 511.71" stroke="hsl(228.5, 77.2%, 51.5%)" stroke-width="1.5"></path><path d="M999.61 258.2L1275.33 360.6" stroke="hsl(228.5, 77.2%, 51.5%)" stroke-width="1.5"></path><path d="M989.27 525.39L989.27 525.39" stroke="hsl(228.5, 77.2%, 51.5%)" stroke-width="1.5"></path><path d="M989.27 525.39L1128.53 511.71" stroke="hsl(228.5, 77.2%, 51.5%)" stroke-width="1.5"></path><path d="M989.27 525.39L851.11 671.74" stroke="hsl(228.5, 77.2%, 51.5%)" stroke-width="1.5"></path><path d="M1156.73 -70.96L1156.73 -70.96" stroke="hsl(228.5, 77.2%, 51.5%)" stroke-width="1.5"></path><path d="M1128.53 511.71L1128.53 511.71" stroke="hsl(228.5, 77.2%, 51.5%)" stroke-width="1.5"></path><path d="M1128.53 511.71L1159.62 666.84" stroke="hsl(228.5, 77.2%, 51.5%)" stroke-width="1.5"></path><path d="M1128.53 511.71L1310.79 511.61" stroke="hsl(228.5, 77.2%, 51.5%)" stroke-width="1.5"></path><path d="M1159.62 666.84L1159.62 666.84" stroke="hsl(228.5, 77.2%, 51.5%)" stroke-width="1.5"></path><path d="M1159.62 666.84L1292.34 698.41" stroke="hsl(228.5, 77.2%, 51.5%)" stroke-width="1.5"></path><path d="M1159.62 666.84L1310.79 511.61" stroke="hsl(228.5, 77.2%, 51.5%)" stroke-width="1.5"></path><path d="M1159.62 666.84L989.27 525.39" stroke="hsl(228.5, 77.2%, 51.5%)" stroke-width="1.5"></path><path d="M1285.96 85.45L1285.96 85.45" stroke="hsl(228.5, 77.2%, 51.5%)" stroke-width="1.5"></path><path d="M1285.96 85.45L1389.12 89.31" stroke="hsl(228.5, 77.2%, 51.5%)" stroke-width="1.5"></path><path d="M1285.96 85.45L1264.49 205.52" stroke="hsl(228.5, 77.2%, 51.5%)" stroke-width="1.5"></path><path d="M1285.96 85.45L1389.14 197.41" stroke="hsl(228.5, 77.2%, 51.5%)" stroke-width="1.5"></path><path d="M1285.96 85.45L1298.25 -71.5" stroke="hsl(228.5, 77.2%, 51.5%)" stroke-width="1.5"></path><path d="M1264.49 205.52L1264.49 205.52" stroke="hsl(228.5, 77.2%, 51.5%)" stroke-width="1.5"></path><path d="M1264.49 205.52L1389.14 197.41" stroke="hsl(228.5, 77.2%, 51.5%)" stroke-width="1.5"></path><path d="M1264.49 205.52L1275.33 360.6" stroke="hsl(228.5, 77.2%, 51.5%)" stroke-width="1.5"></path><path d="M1264.49 205.52L1389.12 89.31" stroke="hsl(228.5, 77.2%, 51.5%)" stroke-width="1.5"></path><path d="M1264.49 205.52L1405.26 408.53" stroke="hsl(228.5, 77.2%, 51.5%)" stroke-width="1.5"></path><path d="M1275.33 360.6L1275.33 360.6" stroke="hsl(228.5, 77.2%, 51.5%)" stroke-width="1.5"></path><path d="M1275.33 360.6L1405.26 408.53" stroke="hsl(228.5, 77.2%, 51.5%)" stroke-width="1.5"></path><path d="M1310.79 511.61L1310.79 511.61" stroke="hsl(228.5, 77.2%, 51.5%)" stroke-width="1.5"></path><path d="M1310.79 511.61L1432.64 497.16" stroke="hsl(228.5, 77.2%, 51.5%)" stroke-width="1.5"></path><path d="M1292.34 698.41L1292.34 698.41" stroke="hsl(228.5, 77.2%, 51.5%)" stroke-width="1.5"></path><path d="M1292.34 698.41L1427.45 707.39" stroke="hsl(228.5, 77.2%, 51.5%)" stroke-width="1.5"></path><path d="M1292.34 698.41L1310.79 511.61" stroke="hsl(228.5, 77.2%, 51.5%)" stroke-width="1.5"></path><path d="M1292.34 698.41L1432.64 497.16" stroke="hsl(228.5, 77.2%, 51.5%)" stroke-width="1.5"></path><path d="M1292.34 698.41L1128.53 511.71" stroke="hsl(228.5, 77.2%, 51.5%)" stroke-width="1.5"></path><path d="M1454.23 -86.83L1454.23 -86.83" stroke="hsl(228.5, 77.2%, 51.5%)" stroke-width="1.5"></path><path d="M1454.23 -86.83L1583.57 -39.98" stroke="hsl(228.5, 77.2%, 51.5%)" stroke-width="1.5"></path><path d="M1454.23 -86.83L1389.12 89.31" stroke="hsl(228.5, 77.2%, 51.5%)" stroke-width="1.5"></path><path d="M1454.23 -86.83L1285.96 85.45" stroke="hsl(228.5, 77.2%, 51.5%)" stroke-width="1.5"></path><path d="M1389.12 89.31L1389.12 89.31" stroke="hsl(228.5, 77.2%, 51.5%)" stroke-width="1.5"></path><path d="M1389.12 89.31L1389.14 197.41" stroke="hsl(228.5, 77.2%, 51.5%)" stroke-width="1.5"></path><path d="M1389.12 89.31L1298.25 -71.5" stroke="hsl(228.5, 77.2%, 51.5%)" stroke-width="1.5"></path><path d="M1389.14 197.41L1389.14 197.41" stroke="hsl(228.5, 77.2%, 51.5%)" stroke-width="1.5"></path><path d="M1389.14 197.41L1275.33 360.6" stroke="hsl(228.5, 77.2%, 51.5%)" stroke-width="1.5"></path><path d="M1405.26 408.53L1405.26 408.53" stroke="hsl(228.5, 77.2%, 51.5%)" stroke-width="1.5"></path><path d="M1405.26 408.53L1432.64 497.16" stroke="hsl(228.5, 77.2%, 51.5%)" stroke-width="1.5"></path><path d="M1405.26 408.53L1310.79 511.61" stroke="hsl(228.5, 77.2%, 51.5%)" stroke-width="1.5"></path><path d="M1405.26 408.53L1389.14 197.41" stroke="hsl(228.5, 77.2%, 51.5%)" stroke-width="1.5"></path><path d="M1432.64 497.16L1432.64 497.16" stroke="hsl(228.5, 77.2%, 51.5%)" stroke-width="1.5"></path><path d="M1427.45 707.39L1427.45 707.39" stroke="hsl(228.5, 77.2%, 51.5%)" stroke-width="1.5"></path><path d="M1427.45 707.39L1605.27 701.88" stroke="hsl(228.5, 77.2%, 51.5%)" stroke-width="1.5"></path><path d="M1583.57 -39.98L1583.57 -39.98" stroke="hsl(228.5, 77.2%, 51.5%)" stroke-width="1.5"></path><path d="M1583.57 -39.98L1610.63 109.74" stroke="hsl(228.5, 77.2%, 51.5%)" stroke-width="1.5"></path><path d="M1610.63 109.74L1610.63 109.74" stroke="hsl(228.5, 77.2%, 51.5%)" stroke-width="1.5"></path><path d="M1610.63 109.74L1389.12 89.31" stroke="hsl(228.5, 77.2%, 51.5%)" stroke-width="1.5"></path><path d="M1610.63 109.74L1389.14 197.41" stroke="hsl(228.5, 77.2%, 51.5%)" stroke-width="1.5"></path><path d="M1610.63 109.74L1454.23 -86.83" stroke="hsl(228.5, 77.2%, 51.5%)" stroke-width="1.5"></path><path d="M1605.27 701.88L1605.27 701.88" stroke="hsl(228.5, 77.2%, 51.5%)" stroke-width="1.5"></path><path d="M1605.27 701.88L1432.64 497.16" stroke="hsl(228.5, 77.2%, 51.5%)" stroke-width="1.5"></path><path d="M1605.27 701.88L1292.34 698.41" stroke="hsl(228.5, 77.2%, 51.5%)" stroke-width="1.5"></path><circle r="25" cx="-59.72" cy="547.51" fill="url(#SvgjsRadialGradient1001)"></circle><circle r="25" cx="112.27" cy="656.62" fill="url(#SvgjsRadialGradient1001)"></circle><circle r="25" cx="559.38" cy="665.5" fill="url(#SvgjsRadialGradient1001)"></circle><circle r="25" cx="961.27" cy="689.4" fill="url(#SvgjsRadialGradient1001)"></circle><circle r="25" cx="1298.25" cy="-71.5" fill="url(#SvgjsRadialGradient1001)"></circle><circle r="25" cx="1558.97" cy="206.56" fill="url(#SvgjsRadialGradient1001)"></circle><circle r="25" cx="1561.19" cy="528.8" fill="url(#SvgjsRadialGradient1001)"></circle><circle r="5" cx="-84.13" cy="705.66" fill="#8b9ad9"></circle><circle r="5" cx="48.6" cy="504.57" fill="#8b9ad9"></circle><circle r="5" cx="221.48" cy="524.83" fill="#8b9ad9"></circle><circle r="5" cx="212.7" cy="703.57" fill="#8b9ad9"></circle><circle r="5" cx="407.49" cy="693.06" fill="#8b9ad9"></circle><circle r="5" cx="533.16" cy="555.74" fill="#8b9ad9"></circle><circle r="5" cx="709.34" cy="560.56" fill="#8b9ad9"></circle><circle r="5" cx="811.96" cy="402.36" fill="#8b9ad9"></circle><circle r="5" cx="799.37" cy="500.9" fill="#8b9ad9"></circle><circle r="5" cx="851.11" cy="671.74" fill="#8b9ad9"></circle><circle r="5" cx="999.61" cy="258.2" fill="#8b9ad9"></circle><circle r="5" cx="989.27" cy="525.39" fill="#8b9ad9"></circle><circle r="5" cx="1156.73" cy="-70.96" fill="#8b9ad9"></circle><circle r="5" cx="1128.53" cy="511.71" fill="#8b9ad9"></circle><circle r="5" cx="1159.62" cy="666.84" fill="#8b9ad9"></circle><circle r="5" cx="1285.96" cy="85.45" fill="#8b9ad9"></circle><circle r="5" cx="1264.49" cy="205.52" fill="#8b9ad9"></circle><circle r="5" cx="1275.33" cy="360.6" fill="#8b9ad9"></circle><circle r="5" cx="1310.79" cy="511.61" fill="#8b9ad9"></circle><circle r="5" cx="1292.34" cy="698.41" fill="#8b9ad9"></circle><circle r="5" cx="1454.23" cy="-86.83" fill="#8b9ad9"></circle><circle r="5" cx="1389.12" cy="89.31" fill="#8b9ad9"></circle><circle r="5" cx="1389.14" cy="197.41" fill="#8b9ad9"></circle><circle r="5" cx="1405.26" cy="408.53" fill="#8b9ad9"></circle><circle r="5" cx="1432.64" cy="497.16" fill="#8b9ad9"></circle><circle r="5" cx="1427.45" cy="707.39" fill="#8b9ad9"></circle><circle r="5" cx="1583.57" cy="-39.98" fill="#8b9ad9"></circle><circle r="5" cx="1610.63" cy="109.74" fill="#8b9ad9"></circle><circle r="5" cx="1605.27" cy="701.88" fill="#8b9ad9"></circle></g><defs><mask id="SvgjsMask1000"><rect width="1440" height="560" fill="#ffffff"></rect></mask><radialGradient id="SvgjsRadialGradient1001"><stop stop-color="#ffffff" offset="0.1"></stop><stop stop-color="#1735b3" offset="0.2"></stop><stop stop-color="rgba(23, 53, 179, 0)" offset="1"></stop></radialGradient></defs></svg>